<svg version="1.2" xmlns="http://www.w3.org/2000/svg" viewBox="0 0 174 181" width="174" height="181">
	<title>Shape 2</title>
	<style>
		.s0 {
			fill: #ffffff;
		}
	</style>
	<path id="Shape 2" class="s0"
		d="m86.1 95.9l-18.8 2.3-2.3 18.8-18.8 2.2-2.2 18.9-18.9 2.2-1.3 17.6h-0.8l1.4-18.3 18.9-2.2 2.2-18.9 18.8-2.2 2.3-18.8 18.8-2.3 2.2-18.8 18.8-2.2 2.3-18.9 18.8-2.2 2.2-18.8 19.2-2.3 0.1 0.8-18.6 2.2-2.2 18.8-18.8 2.2-2.3 18.9-18.8 2.2zm16 16l-18.8 2.2-2.2 18.9-18.9 2.2-2.2 18.8-18.8 2.3-1.4 17.6h-0.8l1.5-18.3 18.8-2.3 2.2-18.8 18.9-2.2 2.2-18.9 18.8-2.2 2.2-18.8 18.9-2.3 2.2-18.8 18.8-2.2 2.3-18.8 19.1-2.3 0.1 0.8-18.5 2.2-2.3 18.8-18.8 2.2-2.2 18.8-18.9 2.3zm-32-32l-18.8 2.2-2.2 18.8-18.8 2.3-2.3 18.8-18.8 2.2-1.3 17.7-0.8-0.1 1.4-18.3 18.8-2.2 2.3-18.8 18.8-2.3 2.2-18.8 18.8-2.2 2.3-18.9 18.8-2.2 2.2-18.8 18.9-2.2 2.2-18.9 19.1-2.2 0.1 0.7-18.5 2.2-2.2 18.9-18.9 2.2-2.2 18.8-18.8 2.3z" />
</svg>