<svg version="1.2" xmlns="http://www.w3.org/2000/svg" viewBox="0 0 117 52" width="117" height="52">
	<title>Shape 2 copy</title>
	<style>
		.s0 { fill: #ffffff } 
	</style>
	<path id="Shape 2 copy" class="s0" d="m58.7 27.1l-8.4-6.6-8.4 6.6-8.3-6.6-8.4 6.6-8.4-6.6-7.5 6.5-0.3-0.3 7.8-6.8 8.4 6.7 8.4-6.7 8.3 6.7 8.4-6.7 8.4 6.7 8.3-6.7 8.4 6.7 8.4-6.7 8.3 6.7 8.4-6.7 8.5 6.8-0.3 0.3-8.2-6.5-8.4 6.6-8.3-6.6-8.4 6.6-8.4-6.6zm0 12.8l-8.3-6.7-8.4 6.7-8.4-6.7-8.3 6.7-8.4-6.6-7.5 6.5-0.3-0.3 7.8-6.8 8.4 6.7 8.3-6.7 8.4 6.7 8.4-6.7 8.3 6.7 8.4-6.7 8.4 6.7 8.3-6.7 8.4 6.7 8.4-6.7 8.5 6.8-0.3 0.3-8.2-6.6-8.4 6.7-8.4-6.7-8.3 6.7-8.4-6.7zm0-25.7l-8.4-6.7-8.3 6.7-8.4-6.7-8.4 6.7-8.3-6.7-7.6 6.6-0.3-0.4 7.9-6.7 8.3 6.6 8.4-6.6 8.4 6.6 8.3-6.6 8.4 6.6 8.4-6.6 8.3 6.6 8.4-6.6 8.4 6.6 8.3-6.6 8.5 6.7-0.2 0.4-8.3-6.6-8.3 6.7-8.4-6.7-8.4 6.7-8.3-6.7z"/>
</svg>