<svg xmlns="http://www.w3.org/2000/svg" xmlns:xlink="http://www.w3.org/1999/xlink" width="2274" height="866"><defs><path id="a" d="M0 0h2275v868H0z"/><linearGradient x1="56.095%" y1="109.183%" x2="-15.262%" y2="47.415%" id="c"><stop stop-color="#141D34" offset="0%"/><stop stop-color="#FFF" stop-opacity="0" offset="100%"/></linearGradient><filter x="-2.1%" y="-7.1%" width="104.3%" height="114.3%" filterUnits="objectBoundingBox" id="d"><feGaussianBlur stdDeviation="10" in="SourceGraphic"/></filter><filter x="-1.5%" y="-5%" width="103%" height="110%" filterUnits="objectBoundingBox" id="e"><feGaussianBlur stdDeviation="7" in="SourceGraphic"/></filter><path d="M15.125 352.55c-5.317 0-9.167-1.558-11.55-4.675-2.383-3.117-3.575-6.6-3.575-10.45 0-5.133 1.558-9.808 4.675-14.025l178.75-310.475c1.833-3.117 3.896-5.087 6.188-5.913 2.291-.825 6.279-1.237 11.962-1.237H276.1c2.75.183 5.592 1.375 8.525 3.575 2.933 2.2 4.4 5.042 4.4 8.525v240.35h33c3.667 0 6.737 1.008 9.213 3.025 2.475 2.017 3.712 5.225 3.712 9.625v68.75c0 3.117-1.237 6.004-3.712 8.663-2.476 2.658-5.546 3.987-9.213 3.987h-33v49.775c0 8.067-4.4 12.1-13.2 12.1H201.3c-8.067 0-12.1-4.033-12.1-12.1v-49.5H15.125zm178.2-93.5v-94.6l-55.55 94.6h55.55zm411.5-48.95c0 15.4 2.704 29.746 8.112 43.037 5.409 13.292 12.88 24.888 22.413 34.788 9.533 9.9 20.762 17.692 33.688 23.375 12.925 5.683 26.995 8.525 42.212 8.525 15.033 0 29.104-2.842 42.212-8.525 13.109-5.683 24.43-13.475 33.963-23.375 9.533-9.9 17.05-21.496 22.55-34.788 5.5-13.291 8.25-27.637 8.25-43.037 0-15.217-2.75-29.562-8.25-43.037-5.5-13.476-13.017-25.209-22.55-35.2-9.533-9.992-20.854-17.875-33.962-23.65-13.109-5.776-27.18-8.663-42.213-8.663-15.217 0-29.287 2.887-42.212 8.663-12.926 5.775-24.155 13.658-33.688 23.65-9.533 9.991-17.004 21.724-22.413 35.2-5.408 13.475-8.112 27.82-8.112 43.037zm-103.95.275c0-19.25 2.475-37.858 7.425-55.825 4.95-17.967 12.008-34.742 21.175-50.325A214.933 214.933 0 0 1 562.337 61.6a205.006 205.006 0 0 1 42.488-32.862c15.583-9.076 32.312-16.134 50.188-21.175C672.888 2.52 691.542 0 710.975 0c19.25 0 37.858 2.52 55.825 7.563 17.967 5.041 34.742 12.1 50.325 21.175A205.006 205.006 0 0 1 859.612 61.6a210.894 210.894 0 0 1 32.726 42.625c9.075 15.583 16.133 32.358 21.175 50.325 5.041 17.967 7.562 36.575 7.562 55.825 0 19.433-2.52 38.087-7.563 55.962-5.041 17.876-12.1 34.559-21.174 50.05-9.076 15.492-19.984 29.609-32.726 42.35a211.46 211.46 0 0 1-42.487 32.863c-15.583 9.167-32.358 16.225-50.325 21.175-17.967 4.95-36.575 7.425-55.825 7.425-19.433 0-38.087-2.475-55.962-7.425-17.876-4.95-34.605-12.008-50.188-21.175a211.46 211.46 0 0 1-42.488-32.863 213.208 213.208 0 0 1-32.862-42.35c-9.167-15.491-16.225-32.174-21.175-50.05-4.95-17.875-7.425-36.529-7.425-55.962zM1076.1 352.55c-5.317 0-9.167-1.558-11.55-4.675-2.383-3.117-3.575-6.6-3.575-10.45 0-5.133 1.558-9.808 4.675-14.025L1244.4 12.925c1.833-3.117 3.896-5.087 6.188-5.913 2.291-.825 6.279-1.237 11.962-1.237h74.525c2.75.183 5.592 1.375 8.525 3.575 2.933 2.2 4.4 5.042 4.4 8.525v240.35h33c3.667 0 6.737 1.008 9.213 3.025 2.475 2.017 3.712 5.225 3.712 9.625v68.75c0 3.117-1.237 6.004-3.712 8.663-2.476 2.658-5.546 3.987-9.213 3.987h-33v49.775c0 8.067-4.4 12.1-13.2 12.1h-74.525c-8.067 0-12.1-4.033-12.1-12.1v-49.5H1076.1zm178.2-93.5v-94.6l-55.55 94.6h55.55z" id="f"/><path id="h" d="M510.644 460.493H.002V.095h510.642z"/><path d="M16.514 1.112C8.521-1.118 1.667 3.742.34 8.505c-1.327 4.762 4.076 10.43 12.07 12.66 7.994 2.23 15.55.177 16.878-4.585 1.328-4.762-4.779-13.238-12.773-15.468z" id="j"/><path d="M240.407 36.419l-97.544 197.193c-5.044 10.197-17.4 14.375-27.596 9.33a20.598 20.598 0 0 1-9.33-9.33L8.393 36.42c-5.044-10.197-.867-22.552 9.33-27.596a20.598 20.598 0 0 1 9.133-2.136h195.088c11.376 0 20.599 9.222 20.599 20.599 0 3.168-.731 6.293-2.136 9.133z" id="l"/></defs><g transform="translate(0 -1)" fill="none" fill-rule="evenodd"><mask id="b" fill="#fff"><use xlink:href="#a"/></mask><path d="M1959.414 700.383c1.172-14.06-6.984-31.1-20.404-43.154-13.046-11.72-27.326-15.554-37.259-10.304-23.35 12.345-24.875 50.433-2.6 70.177 9.616 8.523 25.67 15.425 45.936 20.21 8.403-14.135 13.52-27.252 14.327-36.929zM521.279 116.668c-19.155 19.351-25.7 40.283-20.75 59.925 4.695 18.625 19.685 35.278 41.24 45.357 20.372 9.526 51.993 6.928 77.308-6.31 26.456-13.836 39.684-35.312 34.333-59.412-3.192-14.378-18.486-33.646-42.618-51.895-12.065-9.123-25.83-17.657-40.95-25.344-19.03 11.76-35.627 24.61-48.563 37.68zm1423.808 620.644c7.133 1.685 14.788 3.107 22.868 4.245 9.183 1.293 18.915 2.22 29.053 2.749 42.587 2.22 86.296-2.954 113.66-13.537 32.676-12.637 62.569-29.14 86.273-48.777 27.716-22.961 45.93-49.28 52.849-78.78 4.462-19.027 1.626-43.034-7.61-71.942-5.324-16.663-12.465-34.184-22.12-55.128-4.296-9.315-18.513-38.982-18.358-38.655l19.893-9.394c-.216-.457 14.066 29.345 18.443 38.838 10 21.692 17.456 39.984 23.098 57.644 10.339 32.356 13.61 60.05 8.073 83.66-8.115 34.603-29.07 64.882-60.233 90.698-25.7 21.292-57.63 38.919-92.372 52.355-30.585 11.828-77.292 17.357-122.741 14.988-14.27-.744-27.855-2.216-40.473-4.4-8.259-1.43-16.104-3.166-23.457-5.201-19.94-5.521-36.256-13.254-47.375-23.11-33.147-29.38-30.876-86.113 6.912-106.09 39.035-20.635 93.724 28.491 89.867 74.736-.947 11.358-5.684 24.993-13.382 39.346-3.577 6.67-7.793 13.495-12.565 20.318a244.153 244.153 0 0 1-15.417 19.756c-26.667 30.823-60.636 55.518-97.278 68.453-41.856 14.776-103.772 20.655-162.946 14.155-70.263-7.717-131.506-31.595-173.576-72.088-22.61-21.764-38.641-46.364-55.135-80.878-2.276-4.761-4.568-9.711-7.27-15.667-1.531-3.376-6.679-14.823-6.913-15.342-12.63-27.988-20.439-42.932-30.862-57.25-12.943-17.779-28.062-30.746-47.651-39.86-19.113-8.893-41.177-14.74-83.863-23.411-3.507-.712-16.311-3.294-15.749-3.18a2553.994 2553.994 0 0 1-16.12-3.3c-12.38-2.582-22.883-4.92-32.953-7.378-40.978-10.002-73.266-21.782-101.435-38.562-34.282-20.422-60.644-47.583-78.757-83.398-10.57-20.899-18.2-44.412-24.105-72.342-4.424-20.93-7.005-38.255-11.99-76.938l-.66-5.132c-4.685-36.271-7.65-55.482-12.28-76.245-5.92-26.543-13.555-48.753-23.947-68.19C932.2 79.66 892.347 49.067 828.801 32.314c-56.154-14.804-118.102-10.61-178.51 9.36a390.34 390.34 0 0 0-57.853 24.472 360.541 360.541 0 0 0-22.596 12.843 332.569 332.569 0 0 0-23.684-10.875c-12.655-5.23-26.016-9.878-39.926-13.825-46.838-13.292-98.146-18.26-151.654-13.434-60.61 5.466-122.755 23.335-185.126 54.725-232.847 117.186-193.936 318.417 9.618 271.365-249.843 70.542-224.193-188.004-19.508-291.017C224.392 43.3 289.22 24.66 352.602 18.944c56.216-5.07 110.228.16 159.636 14.18 20.012 5.68 38.996 12.743 56.548 20.895a335.375 335.375 0 0 1 23.652 12.127c11.4 6.44 21.988 13.354 31.623 20.64 27.909 21.103 46.296 44.27 50.826 64.673 7.768 34.985-11.108 65.63-45.615 83.675-31.025 16.225-69.745 19.406-96.822 6.745-27.26-12.747-46.853-34.513-53.253-59.91-6.911-27.423 2.071-56.153 26.446-80.778 11.301-11.417 25.023-22.592 40.515-33.077a359.802 359.802 0 0 1 22.628-14.095c22.753-13.05 48.139-24.487 74.6-33.234C707.61-.445 773.832-4.93 834.41 11.041c69.353 18.284 114.253 52.75 141.474 103.665 11.429 21.376 19.695 45.42 26.018 73.773 4.819 21.61 7.86 41.308 12.626 78.216l.663 5.14c4.908 38.095 7.432 55.04 11.693 75.198 5.539 26.199 12.6 47.954 22.213 66.964 16.158 31.948 39.569 56.068 70.385 74.425 25.992 15.484 56.358 26.563 95.391 36.09 9.801 2.393 20.074 4.68 32.23 7.215 4.752.991 9.601 1.982 15.984 3.272-.577-.117 12.245 2.468 15.772 3.184 44.375 9.014 67.56 15.158 88.763 25.024 23.123 10.758 41.102 26.178 56.157 46.859 11.566 15.887 19.909 31.854 33.129 61.149.247.548 5.381 11.965 6.895 15.302 2.646 5.833 4.88 10.658 7.084 15.27 15.456 32.34 30.141 54.876 50.543 74.513 38.138 36.71 94.903 58.841 160.722 66.071 56.025 6.154 114.635.588 153.22-13.032 32.8-11.58 63.667-34.019 87.964-62.102a225.818 225.818 0 0 0 8.597-10.562c4.98-6.514 9.396-13.04 13.154-19.363z" fill="#FFF" fill-rule="nonzero" mask="url(#b)"/><path d="M169.452 95.58C-63.395 212.766-24.484 413.997 179.07 366.945-70.773 437.487-45.123 178.941 159.562 75.928c64.83-32.628 72.261-11.738 9.89 19.652z" fill="url(#c)" fill-rule="nonzero" mask="url(#b)"/><g mask="url(#b)"><g transform="translate(385 262)"><path d="M15.125 396.55c-5.317 0-9.167-1.558-11.55-4.675-2.383-3.117-3.575-6.6-3.575-10.45 0-5.133 1.558-9.808 4.675-14.025l178.75-310.475c1.833-3.117 3.896-5.087 6.188-5.912 2.291-.826 6.279-1.238 11.962-1.238H276.1c2.75.183 5.592 1.375 8.525 3.575 2.933 2.2 4.4 5.042 4.4 8.525v240.35h33c3.667 0 6.737 1.008 9.213 3.025 2.475 2.017 3.712 5.225 3.712 9.625v68.75c0 3.117-1.237 6.004-3.712 8.663-2.476 2.658-5.546 3.987-9.213 3.987h-33v49.775c0 8.067-4.4 12.1-13.2 12.1H201.3c-8.067 0-12.1-4.033-12.1-12.1v-49.5H15.125zm178.2-93.5v-94.6l-55.55 94.6h55.55zm411.5-48.95c0 15.4 2.704 29.746 8.112 43.037 5.409 13.292 12.88 24.888 22.413 34.788 9.533 9.9 20.762 17.692 33.688 23.375 12.925 5.683 26.995 8.525 42.212 8.525 15.033 0 29.104-2.842 42.212-8.525 13.109-5.683 24.43-13.475 33.963-23.375 9.533-9.9 17.05-21.496 22.55-34.788 5.5-13.291 8.25-27.637 8.25-43.037 0-15.217-2.75-29.562-8.25-43.037-5.5-13.476-13.017-25.209-22.55-35.2-9.533-9.992-20.854-17.875-33.962-23.65-13.109-5.776-27.18-8.663-42.213-8.663-15.217 0-29.287 2.887-42.212 8.662-12.926 5.776-24.155 13.659-33.688 23.65-9.533 9.992-17.004 21.725-22.413 35.2-5.408 13.476-8.112 27.821-8.112 43.038zm-103.95.275c0-19.25 2.475-37.858 7.425-55.825 4.95-17.967 12.008-34.742 21.175-50.325a214.933 214.933 0 0 1 32.862-42.625 205.006 205.006 0 0 1 42.488-32.862c15.583-9.076 32.312-16.134 50.188-21.175C672.888 46.52 691.542 44 710.975 44c19.25 0 37.858 2.52 55.825 7.563 17.967 5.041 34.742 12.1 50.325 21.174a205.006 205.006 0 0 1 42.487 32.863 210.894 210.894 0 0 1 32.726 42.625c9.075 15.583 16.133 32.358 21.175 50.325 5.041 17.967 7.562 36.575 7.562 55.825 0 19.433-2.52 38.087-7.563 55.962-5.041 17.876-12.1 34.559-21.174 50.05-9.076 15.492-19.984 29.609-32.726 42.35a211.46 211.46 0 0 1-42.487 32.863c-15.583 9.167-32.358 16.225-50.325 21.175-17.967 4.95-36.575 7.425-55.825 7.425-19.433 0-38.087-2.475-55.962-7.425-17.876-4.95-34.605-12.008-50.188-21.175a211.46 211.46 0 0 1-42.488-32.863 213.208 213.208 0 0 1-32.862-42.35c-9.167-15.491-16.225-32.174-21.175-50.05-4.95-17.875-7.425-36.529-7.425-55.962zM1076.1 396.55c-5.317 0-9.167-1.558-11.55-4.675-2.383-3.117-3.575-6.6-3.575-10.45 0-5.133 1.558-9.808 4.675-14.025L1244.4 56.925c1.833-3.117 3.896-5.087 6.188-5.912 2.291-.826 6.279-1.238 11.962-1.238h74.525c2.75.183 5.592 1.375 8.525 3.575 2.933 2.2 4.4 5.042 4.4 8.525v240.35h33c3.667 0 6.737 1.008 9.213 3.025 2.475 2.017 3.712 5.225 3.712 9.625v68.75c0 3.117-1.237 6.004-3.712 8.663-2.476 2.658-5.546 3.987-9.213 3.987h-33v49.775c0 8.067-4.4 12.1-13.2 12.1h-74.525c-8.067 0-12.1-4.033-12.1-12.1v-49.5H1076.1zm178.2-93.5v-94.6l-55.55 94.6h55.55z" fill="#10182D" filter="url(#d)"/><path d="M15.125 352.55c-5.317 0-9.167-1.558-11.55-4.675-2.383-3.117-3.575-6.6-3.575-10.45 0-5.133 1.558-9.808 4.675-14.025l178.75-310.475c1.833-3.117 3.896-5.087 6.188-5.913 2.291-.825 6.279-1.237 11.962-1.237H276.1c2.75.183 5.592 1.375 8.525 3.575 2.933 2.2 4.4 5.042 4.4 8.525v240.35h33c3.667 0 6.737 1.008 9.213 3.025 2.475 2.017 3.712 5.225 3.712 9.625v68.75c0 3.117-1.237 6.004-3.712 8.663-2.476 2.658-5.546 3.987-9.213 3.987h-33v49.775c0 8.067-4.4 12.1-13.2 12.1H201.3c-8.067 0-12.1-4.033-12.1-12.1v-49.5H15.125zm178.2-93.5v-94.6l-55.55 94.6h55.55zm411.5-48.95c0 15.4 2.704 29.746 8.112 43.037 5.409 13.292 12.88 24.888 22.413 34.788 9.533 9.9 20.762 17.692 33.688 23.375 12.925 5.683 26.995 8.525 42.212 8.525 15.033 0 29.104-2.842 42.212-8.525 13.109-5.683 24.43-13.475 33.963-23.375 9.533-9.9 17.05-21.496 22.55-34.788 5.5-13.291 8.25-27.637 8.25-43.037 0-15.217-2.75-29.562-8.25-43.037-5.5-13.476-13.017-25.209-22.55-35.2-9.533-9.992-20.854-17.875-33.962-23.65-13.109-5.776-27.18-8.663-42.213-8.663-15.217 0-29.287 2.887-42.212 8.663-12.926 5.775-24.155 13.658-33.688 23.65-9.533 9.991-17.004 21.724-22.413 35.2-5.408 13.475-8.112 27.82-8.112 43.037zm-103.95.275c0-19.25 2.475-37.858 7.425-55.825 4.95-17.967 12.008-34.742 21.175-50.325A214.933 214.933 0 0 1 562.337 61.6a205.006 205.006 0 0 1 42.488-32.862c15.583-9.076 32.312-16.134 50.188-21.175C672.888 2.52 691.542 0 710.975 0c19.25 0 37.858 2.52 55.825 7.563 17.967 5.041 34.742 12.1 50.325 21.175A205.006 205.006 0 0 1 859.612 61.6a210.894 210.894 0 0 1 32.726 42.625c9.075 15.583 16.133 32.358 21.175 50.325 5.041 17.967 7.562 36.575 7.562 55.825 0 19.433-2.52 38.087-7.563 55.962-5.041 17.876-12.1 34.559-21.174 50.05-9.076 15.492-19.984 29.609-32.726 42.35a211.46 211.46 0 0 1-42.487 32.863c-15.583 9.167-32.358 16.225-50.325 21.175-17.967 4.95-36.575 7.425-55.825 7.425-19.433 0-38.087-2.475-55.962-7.425-17.876-4.95-34.605-12.008-50.188-21.175a211.46 211.46 0 0 1-42.488-32.863 213.208 213.208 0 0 1-32.862-42.35c-9.167-15.491-16.225-32.174-21.175-50.05-4.95-17.875-7.425-36.529-7.425-55.962zM1076.1 352.55c-5.317 0-9.167-1.558-11.55-4.675-2.383-3.117-3.575-6.6-3.575-10.45 0-5.133 1.558-9.808 4.675-14.025L1244.4 12.925c1.833-3.117 3.896-5.087 6.188-5.913 2.291-.825 6.279-1.237 11.962-1.237h74.525c2.75.183 5.592 1.375 8.525 3.575 2.933 2.2 4.4 5.042 4.4 8.525v240.35h33c3.667 0 6.737 1.008 9.213 3.025 2.475 2.017 3.712 5.225 3.712 9.625v68.75c0 3.117-1.237 6.004-3.712 8.663-2.476 2.658-5.546 3.987-9.213 3.987h-33v49.775c0 8.067-4.4 12.1-13.2 12.1h-74.525c-8.067 0-12.1-4.033-12.1-12.1v-49.5H1076.1zm178.2-93.5v-94.6l-55.55 94.6h55.55z" fill="#FFFDE9" filter="url(#e)"/><mask id="g" fill="#fff"><use xlink:href="#f"/></mask><use fill="#FFFDE9" xlink:href="#f"/><ellipse fill="#D1C988" opacity=".359" mask="url(#g)" cx="860" cy="288" rx="51" ry="59"/><ellipse fill="#D1C988" opacity=".359" mask="url(#g)" cx="137" cy="85" rx="51" ry="59"/><ellipse fill="#D1C988" opacity=".359" mask="url(#g)" cx="1369" cy="381" rx="51" ry="59"/><ellipse fill="#D1C988" opacity=".359" mask="url(#g)" cx="1248" cy="65.5" rx="61" ry="70.5"/><ellipse fill="#D1C988" opacity=".359" mask="url(#g)" cx="205" cy="420.5" rx="61" ry="70.5"/><ellipse fill="#D1C988" opacity=".359" mask="url(#g)" cx="265.5" cy="73" rx="30.5" ry="35"/><ellipse fill="#D1C988" opacity=".359" mask="url(#g)" cx="85.5" cy="291" rx="30.5" ry="35"/><ellipse fill="#D1C988" opacity=".359" mask="url(#g)" cx="1138.5" cy="298" rx="30.5" ry="35"/><ellipse fill="#D1C988" opacity=".359" mask="url(#g)" cx="890.5" cy="134" rx="30.5" ry="35"/><ellipse fill="#D1C988" opacity=".359" mask="url(#g)" cx="798.5" cy="38" rx="10.5" ry="12"/><ellipse fill="#D1C988" opacity=".359" mask="url(#g)" cx="247.5" cy="268" rx="10.5" ry="12"/><ellipse fill="#D1C988" opacity=".359" mask="url(#g)" cx="1297.5" cy="255" rx="10.5" ry="12"/><ellipse fill="#D1C988" opacity=".359" mask="url(#g)" cx="1329" cy="204" rx="22" ry="25"/><ellipse fill="#D1C988" opacity=".359" mask="url(#g)" cx="672" cy="399" rx="22" ry="25"/><ellipse fill="#D1C988" opacity=".359" mask="url(#g)" cx="613.5" cy="162" rx="58.5" ry="67"/></g></g><path d="M2211.648 432.79c22.246 47.111 61.172 120.394 48.851 172.933-16.111 68.7-86.042 112.17-145.863 135.305-58.954 22.8-181.987 20.465-222.782-15.694-27.118-24.037-26.44-71.642 4.756-88.134 31.197-16.491 76.883 26.714 73.766 64.097-3.08 36.935-56.396 111.958-131.343 138.415-74.947 26.457-238.196 28.288-325.231-55.486-72.835-70.106-65.607-171.399-150.82-211.046-64.803-30.151-179.818-27.637-260.425-82.5" stroke="#FFF" stroke-width="22" mask="url(#b)"/><g mask="url(#b)"><path d="M2221.66 240c31.674 0 48.12 6.396 49.338 19.187 1.827 19.186 0 146.184-40.201 189.125-26.8 28.628-55.733 24.364-86.797-12.79L2207.728 240h13.932z" fill="#FFF"/><g transform="translate(1704 -24)"><ellipse fill="#1D3145" style="mix-blend-mode:screen" cx="446.703" cy="159.337" rx="112.755" ry="112.784"/><path d="M256.973 176.645s8.013-65.917-52.942-85.612M259.875 177.253s15.98-64.45-42.122-91.425M263.214 179.216s24.348-61.776-29.685-96.188" stroke="#D6D06B" stroke-width="7.2" stroke-linecap="round"/><path d="M383.93 248.062s-71.972 13.575-90.205-20.98c-18.232-34.555-8.96-85.427-27.51-85.427-18.551 0-37.744 25.642-32.946 106.407 4.799 80.765 74.957 99.963 74.957 99.963l75.704-99.963z" fill="#5C4A3A"/><path d="M132.043 127.014s11.408 19.295 0 45.376M144.126 129.31s8.006 20.938-7.62 44.732M123.64 133.839s11.41 19.295 0 45.377" stroke="#D6D06B" stroke-width="7.2" stroke-linecap="round"/><path d="M178.571 386.42s33.587-51.353-16.313-87.108c-49.9-35.755-68.133-52.073-68.133-68.39 0-16.318 7.676-66.23 35.505-60.471 27.83 5.759 23.031 32.635 23.031 32.635s88.285 11.518 129.549 66.23c41.264 54.712 6.717 125.742 6.717 125.742H179.531l-.96-8.639z" fill="#755E4C"/><g transform="translate(11.995 89.14)"><mask id="i" fill="#fff"><use xlink:href="#h"/></mask><path d="M459.925 10.595c63.686 39.64 66.564 170.635 13.316 300.19-53.248 129.555-152.55 132.434-152.55 132.434s-28.782-5.758-37.417 17.274c-4.317-27.35-28.783-18.713-30.222-5.758-11.513-20.153-23.026-15.834-30.222-4.319-2.878-21.592-17.27-17.273-25.904-12.955-5.757-14.395-20.148-17.755-28.783-27.831-8.635-10.077-28.08-53.316-51.81-68.616-32.905-21.215-71.957 20.153-99.3 0-27.344-20.153-20.148-84.93 10.074-87.81 15.83-1.439 14.391 10.077 14.391 10.077s82.031-46.064 138.158-15.834c56.127 30.23 47.492 35.987 47.492 35.987s12.93-47.503 77.702-79.172c24.477-11.516 56.369-66.21 57.577-103.645.871-26.985-20.122-44.423 17.749-83.49 15.351-15.835 49.129-25.591 79.75-6.532" fill="#987A63" mask="url(#i)"/></g><path d="M446.305 320.669s-92.123 35.556-160.736-14.158c-56.618-4.08-34.067 9.121-34.067 9.121s120.714 103.935 194.803 5.037" fill="#755E4C"/><path d="M212.158 335.067s15.833 88.787 73.89 108.944c20.153 43.194 51.236 61.866 107.478 11.518 62.375-31.675 88.285-71.03 85.406-107.504-121.872 51.832-254.3-28.833-254.3-28.833l-12.474 15.875z" fill="#755E4C"/><path d="M210.258 264.558s-56.677-34.576-99.828 12.776M208.866 274.056s-56.676-34.577-99.827 12.775M207.406 284.028s-56.676-34.577-99.828 12.775" stroke="#D6D06B" stroke-width="7.2" stroke-linecap="round"/><path d="M493.326 306.75c-6.717-24.226-71.971 37.435-128.589 36.475-56.617-.96-109.396-50.872-122.831-67.19-13.435-16.317-53.282-41.733-62.375-18.237-11.516 29.756 21.351 36.475 29.988 52.792 8.636 16.318 19.912 114.224 87.085 127.662 15.354 2.88 20.241 25.916 20.241 25.916s21.023-23.037 27.26 0c9.117-17.278 16.794-17.278 28.31-9.599 2.878-18.237 19.192-18.237 27.828-16.317 56.618-22.077 103.906-92.467 93.083-131.501" fill="#987A63"/><path d="M362.014 398.026l4.31 22.891M381.38 391.812l9.409 21.307" stroke="#755E4C" stroke-width="4.8" stroke-linecap="round"/><path d="M41.267 347.037s-7.198-36.034-30.951-41.309M35.989 353.996s-7.198-29.53-30.951-34.805M30.95 363.355S23.754 339.816 0 334.542" stroke="#D6D06B" stroke-width="7.2" stroke-linecap="round"/><path d="M479.387 192.473c-3.665 4.617-13.853 11.206-19.203 13.68-12.604 5.826-21.932 6.566-52.585-2.553-26.558-7.901-32.815-21.794-34.749-31.958-.722-3.794-.835-9.67-1.253-12.92-1.881-14.647-7.865-45.445 54.757-24.883 70.541 23.163 65.322 43.153 53.033 58.634z" fill="#D8C4AB"/><path d="M462.499 161.84c-8.866 0-17.615 15.516-14.64 23.268 4.17 10.862 17.803 17.121 3.304 24.847 7.025 8.403 35.246 21.854 39.252 19.956 8.777-4.16-6.328-45.444-8.492-54.043-1.451-5.766-10.559-14.029-19.424-14.029z" fill="#987A63"/><path d="M451.363 165.756c-7.22 8.306-6.339 20.893 1.969 28.115 8.308 7.222 20.895 6.343 28.116-1.963 7.22-8.305 6.338-20.893-1.97-28.115-8.308-7.221-20.895-6.343-28.115 1.963z" fill="#987A63"/><path d="M475.586 179.772c0-7.53-6.102-13.633-13.629-13.633-7.527 0-13.628 6.104-13.628 13.633 0 7.529 6.101 13.632 13.628 13.632s13.63-6.103 13.63-13.632" fill="#3F3027"/><path d="M471.552 179.364c0-5.522-4.477-10-10-10s-10 4.478-10 10c0 5.523 4.477 10 10 10s10-4.477 10-10" fill="#000"/><path d="M473.167 185.18a4.391 4.391 0 1 0-8.783-.002 4.391 4.391 0 0 0 8.783.001" fill="#FEFEFE"/><path d="M384.94 133.824c-8.19 0-19.563 6.871-13.697 32.357.918 3.992 2.61 14.348 5.81 16.908-5.81-11.964 2.85-15.766 9.077-16.908 8.14-1.493 13.643-9.327 13.643-17.52 0-8.195-6.64-14.837-14.832-14.837z" fill="#987A63"/><path d="M385.157 130.27c-8.445 0-15.291 7.868-15.291 17.573 0 9.706 6.846 17.573 15.29 17.573 8.445 0 15.29-7.867 15.29-17.573 0-9.705-6.845-17.572-15.29-17.572z" fill="#987A63"/><path d="M397.658 151.739c0-6.647-5.387-12.036-12.033-12.036-6.645 0-12.032 5.389-12.032 12.036 0 6.647 5.387 12.036 12.032 12.036 6.645 0 12.033-5.39 12.033-12.036" fill="#3F3027"/><path d="M395.204 152.316a9 9 0 1 0-18 0 9 9 0 0 0 18 0" fill="#000"/><path d="M393.114 150.284a3.877 3.877 0 1 0 0 7.754 3.877 3.877 0 0 0 0-7.754z" fill="#FEFEFE"/><path d="M439.694 178.49c1.966-7.05-.02-29.138-11.853-32.44-11.835-3.3-27.51 13.13-29.476 20.18-1.965 7.05 6.734 8.866 18.568 12.167 7.89 2.201 15.477 2.232 22.761.092z" fill="#987A63"/><path d="M440.559 177.24c-5.788-6.464-29.07-18.265-43.599-11.392-4.979 10.838-4.8 22.194 13.93 28.178 18.73 5.985 30.209-1.215 29.669-16.786z" fill="#544A40"/><path d="M398.587 166.765c-.335 3.215.618 7.189 2.686 8.901 3.103 2.568 23.34 9.896 29.663 8.447 4.214-.965 6.985-4.435 8.312-6.409" stroke="#090909" stroke-width="3" stroke-linecap="round"/><g transform="translate(403.76 155.49)"><mask id="k" fill="#fff"><use xlink:href="#j"/></mask><use fill="#362F2B" xlink:href="#j"/><path d="M23.472 18.085a2.577 2.577 0 1 0-5.153 0 2.577 2.577 0 0 0 5.153 0M7.216 12.506a2.577 2.577 0 1 0-5.153 0 2.577 2.577 0 0 0 5.153 0" fill="#000" mask="url(#k)"/></g><g><path d="M449.46 171.743s15.562.321 26.953 12.517c4.17-8.826.32-16.368-7.701-20.06-8.022-3.69-17.969 1.766-19.252 7.543M373.144 148.88s12.817-4.033 25.498 2.798c.977-8.37-4.253-13.476-11.832-14.281-7.58-.805-14.21 6.403-13.666 11.483" fill="#544A40"/><path d="M445.548 145.675s8.638-5.76 22.314-2.16M452.026 146.395s10.797-2.16 28.072 5.76M459.224 149.995s17.375 2.693 30.64 16.285M413.578 137.125s-3.236-16.556-19.791-17.996M410.7 137.125s-6.838-17.276-27.708-14.037M404.582 131.366s-12.594-9.718-32.385-2.879" stroke="#D8C4AB" stroke-width="4.8" stroke-linecap="round"/></g><g transform="translate(287)"><ellipse fill="#FFF" opacity=".243" style="mix-blend-mode:overlay" transform="rotate(-42 159.703 159.337)" cx="159.703" cy="159.337" rx="112.755" ry="112.784"/><ellipse stroke="#9ACFF4" stroke-width="4.8" transform="rotate(-42 159.703 159.337)" cx="159.703" cy="159.337" rx="112.755" ry="112.784"/><path d="M75.247 240.074c41.68 46.29 112.983 50.035 159.26 8.366" stroke="#9ACFF4" stroke-width="12" stroke-linecap="round"/></g><circle fill="#FFF" opacity=".784" cx="514" cy="113" r="24"/><circle fill="#FFF" opacity=".784" cx="489" cy="80" r="13"/></g></g><g mask="url(#b)"><g transform="rotate(-25 547.92 149.71)"><circle fill="#FFF" opacity=".1" cx="131" cy="352" r="74"/><circle fill="#FFF" opacity=".1" cx="130.602" cy="330.602" r="52.602"/><path d="M131.384 370.034c21.983-36.28 32.975-60.5 32.975-72.66 0-18.24-14.764-33.026-32.975-33.026-18.212 0-32.976 14.787-32.976 33.027 0 12.16 10.992 36.38 32.976 72.659z" fill="#FFB100"/><path d="M132.84 337.007c13.19-20.407 19.786-34.03 19.786-40.87 0-10.26-8.858-18.578-19.785-18.578s-19.786 8.317-19.786 18.577c0 6.84 6.596 20.464 19.786 40.87z" fill="#FFEFA7"/><path d="M99.865 251.137h65.95l9.577 23.98a6.6 6.6 0 0 1-6.129 9.047H96.418a6.6 6.6 0 0 1-6.13-9.048l9.577-23.979z" fill="#8D8F96"/><g transform="rotate(-176 128.75 129.572)"><mask id="m" fill="#fff"><use xlink:href="#l"/></mask><use fill="#BD9728" transform="rotate(-3 124.398 125.692)" xlink:href="#l"/><ellipse fill="#910F13" mask="url(#m)" cx="140.714" cy="221.329" rx="40.794" ry="42.933"/><ellipse fill="#910F13" mask="url(#m)" cx="189.802" cy="85.071" rx="48.049" ry="50.569"/><ellipse fill="#910F13" mask="url(#m)" cx="64.646" cy="123.388" rx="44.428" ry="46.758"/><path fill="#8B4819" mask="url(#m)" transform="rotate(-3 122.336 17.874)" d="M-18.656-27.6h281.985v90.947H-18.656z"/></g></g></g></g></svg>